<svg width="456" height="458" viewBox="0 0 456 458" fill="none" xmlns="http://www.w3.org/2000/svg">
<path d="M-126.786 409.935C-122.142 431.46 -104.656 448.64 -83.8915 455.048C-62.3803 461.682 -39.8026 454.976 -24.727 438.415C-10.1848 422.422 -3.32257 398.592 -11.2728 377.899C-18.711 358.543 -39.9235 341.725 -61.1288 351.069C-79.0346 358.962 -89.5021 382.358 -81.687 400.633C-73.8719 418.909 -51.9981 427.791 -33.111 424.448C-9.28168 420.224 3.86676 397.071 10.5299 375.901C18.6508 350.258 19.8454 320.384 38.5334 299.378C53.2677 282.816 76.2223 274.695 98.1459 276.345C109.132 277.1 119.757 280.583 129.058 286.479C139.149 292.999 147.789 304.128 148.969 316.402C150.285 330.056 139.81 339.869 126.661 340.857C112.205 341.931 99.5681 333.17 88.5957 324.843C67.6463 308.936 46.7894 288.576 40.3325 262.152C34.6436 238.749 41.0863 210.603 63.3654 198.194C88.6241 184.128 118.768 194.141 141.054 209.053C153.143 217.145 164.173 226.767 175.188 236.239C186.388 245.867 197.531 255.581 209.186 264.683C231.287 281.906 255.543 296.932 283.092 303.41C308.933 309.49 336.724 307.677 359.614 293.334C380.948 280.008 396.002 258.489 405.652 235.606C417.741 207.019 422.491 175.944 428.279 145.65L446.853 48.4839L455.757 1.89194C455.949 0.889282 454.413 0.469727 454.213 1.46527L435.86 97.4653C429.893 128.697 424.61 160.15 417.613 191.168C411.376 218.781 402.295 246.479 384.325 268.829C376.368 278.728 366.818 287.432 355.753 293.753C343.666 300.54 330.156 304.396 316.308 305.01C256.069 308.104 209.911 263.488 167.323 227.414C147.028 210.233 124.429 192.569 96.9228 190.208C85.033 189.177 72.6028 191.062 62.1423 197.028C52.7033 202.524 45.374 211.02 41.321 221.163C32.3254 243.051 37.2108 267.705 49.6054 287.176C56.553 298.056 65.4988 307.535 75.1699 315.997C85.0543 324.637 95.913 333.675 108.037 338.923C118.363 343.389 131.085 344.406 140.798 337.821C149.474 331.933 152.219 321.508 149.737 311.645C144.333 290.162 122.58 277.753 101.915 275.129C81.4205 272.534 59.6961 278.528 43.881 291.926C23.7636 308.992 18.9352 335.631 13.1468 359.986C7.6712 383.055 -1.56612 411.378 -25.879 420.786C-45.2995 428.303 -71.0346 420.239 -79.9235 400.683C-88.919 380.928 -74.9457 354.006 -53.4061 350.393C-27.5928 346.056 -9.24612 374.258 -9.50924 397.049C-9.77235 419.84 -24.4426 442.127 -45.2212 451.52C-66.8532 461.284 -92.4532 454.429 -109.051 438.265C-117.156 430.49 -122.782 420.493 -125.221 409.529C-125.442 408.512 -126.978 408.953 -126.786 409.935Z" fill="#9A97ED"/>
</svg>
